<?xml version="1.0" encoding="utf-8"?>
<!-- Generator: Adobe Illustrator 27.9.0, SVG Export Plug-In . SVG Version: 6.00 Build 0)  -->
<svg version="1.1" id="Lager_1" xmlns="http://www.w3.org/2000/svg" xmlns:xlink="http://www.w3.org/1999/xlink" x="0px" y="0px"
	 viewBox="0 0 87.65 89.24" style="enable-background:new 0 0 87.65 89.24;" xml:space="preserve">
<style type="text/css">
	.st0{fill:none;stroke:#FFFFFF;stroke-width:0.75;stroke-linecap:round;stroke-linejoin:round;stroke-miterlimit:10;}
</style>
<g>
	<g>
		<g>
			<polyline class="st0" points="55.72,24.6 38.63,24.57 37.16,21.56 55.72,21.59 			"/>
			<polyline class="st0" points="55.71,27.85 41.01,27.82 39.79,24.57 			"/>
			<path class="st0" d="M55.69,39.16l-11.02-0.02c0,0,1.39-2.28-2.74-11.31"/>
			<path class="st0" d="M54.98,79.1l-5.98-0.01c0,0-18.94-19.28-17.28-27.38c1.66-8.1,9.25-12.58,9.25-12.58l25.3,0.04
				c0,0,7.57,4.51,9.2,12.61S58.11,79.11,58.11,79.11l-5.98-0.01"/>
			<polyline class="st0" points="54.98,81.35 49,81.34 49.01,79.09 			"/>
			<polyline class="st0" points="54.97,85.36 41.98,85.34 43.28,82.75 49,81.34 			"/>
			<line class="st0" x1="34.71" y1="45.06" x2="55.04" y2="45.1"/>
			<line class="st0" x1="35.81" y1="62.94" x2="55.01" y2="62.97"/>
			<polyline class="st0" points="62.63,57.48 70.48,57.49 70.49,51.71 68.4,51.71 68.35,55.27 65.27,55.27 65.32,48.68 72.64,48.69 
				72.62,57.5 74.37,57.5 			"/>
			<polyline class="st0" points="53.49,21.58 72.05,21.62 70.57,24.63 53.48,24.6 			"/>
			<polyline class="st0" points="53.48,27.85 68.18,27.87 69.41,24.62 			"/>
			<path class="st0" d="M53.46,39.15l11.02,0.02c0,0-1.38-2.29,2.78-11.3"/>
			<polyline class="st0" points="52.13,81.34 58.1,81.35 58.11,79.11 			"/>
			<polyline class="st0" points="52.12,85.35 65.11,85.38 63.83,82.79 58.1,81.35 			"/>
			<line class="st0" x1="72.52" y1="45.13" x2="52.19" y2="45.1"/>
			<line class="st0" x1="71.36" y1="63" x2="52.16" y2="62.97"/>
			<path class="st0" d="M69.38,41.58c0,0,3.55-9.69,12.63-5.62c9.32,4.17,7.13,31.23-13.58,31.19"/>
			<polyline class="st0" points="62.63,57.48 62.65,48.68 55.34,48.66 55.29,55.25 58.36,55.25 58.41,51.69 60.5,51.7 60.49,57.48 
				52.64,57.46 			"/>
			<polyline class="st0" points="52.64,57.46 52.66,48.66 45.35,48.65 45.3,55.23 48.38,55.24 48.42,51.68 50.51,51.68 50.5,57.46 
				42.65,57.45 			"/>
			<polyline class="st0" points="42.65,57.45 42.67,48.64 35.36,48.63 35.31,55.21 38.39,55.22 38.43,51.66 40.52,51.66 
				40.51,57.44 33.02,57.43 			"/>
		</g>
		<path class="st0" d="M7.47,64.21c-3.34,2.45-3.55,6.71-3.55,6.71s-0.21-4.26-3.55-6.71c3.34-2.45,3.55-6.71,3.55-6.71
			S4.14,61.76,7.47,64.21z"/>
		<path class="st0" d="M81.4,23.36c-3.34,2.45-3.55,6.71-3.55,6.71s-0.21-4.26-3.55-6.71c3.34-2.45,3.55-6.71,3.55-6.71
			S78.06,20.91,81.4,23.36z"/>
		<path class="st0" d="M40.8,76.14c-3.6-3.22-9.21-2.99-12.53,0.67l0,0c-3.54,3.9-9.66,3.9-13.2,0l0,0c-3.54-3.9-9.66-3.9-13.2,0"/>
		<path class="st0" d="M40.39,80.61c-3.6-3.22-9.21-2.99-12.53,0.67l0,0c-3.54,3.9-9.66,3.9-13.2,0l0,0c-3.54-3.9-9.66-3.9-13.2,0"
			/>
		<path class="st0" d="M40.39,85.27c-3.6-3.22-9.21-2.99-12.53,0.67l0,0c-3.54,3.9-9.66,3.9-13.2,0l0,0c-3.54-3.9-9.66-3.9-13.2,0"
			/>
		<path class="st0" d="M45.21,21.56l-0.12-0.3c-1.96-5-6.78-8.3-12.16-8.3h-3.96c-10.65,0-19.29,8.64-19.29,19.29v41.64"/>
		<line class="st0" x1="12.79" y1="49.28" x2="12.79" y2="74.78"/>
		<line class="st0" x1="16.75" y1="64.88" x2="16.75" y2="77.96"/>
		<line class="st0" x1="20.68" y1="56.7" x2="20.68" y2="79.48"/>
		<line class="st0" x1="24.49" y1="64.77" x2="24.49" y2="79.09"/>
		<path class="st0" d="M37.16,21.56L37.16,21.56c-4.52,0-8.19,3.67-8.19,8.19v46.2"/>
		<path class="st0" d="M60.87,15.5c1.3,0,2.5-0.42,3.46-1.13c-1.62,2.74-4.59,4.56-7.98,4.56c-5.13,0-9.29-4.16-9.29-9.27
			c0-5.13,4.16-9.29,9.29-9.29c3.39,0,6.37,1.83,7.98,4.56c-0.96-0.71-2.16-1.13-3.46-1.13c-3.24,0-5.85,2.62-5.85,5.85
			C55.01,12.88,57.63,15.5,60.87,15.5z"/>
	</g>
</g>
</svg>
