<?xml version="1.0" encoding="utf-8"?>
<!-- Generator: Adobe Illustrator 27.9.0, SVG Export Plug-In . SVG Version: 6.00 Build 0)  -->
<svg version="1.1" id="Lager_1" xmlns="http://www.w3.org/2000/svg" xmlns:xlink="http://www.w3.org/1999/xlink" x="0px" y="0px"
	 viewBox="0 0 118.34 95.73" style="enable-background:new 0 0 118.34 95.73;" xml:space="preserve">
<style type="text/css">
	.st0{fill:none;stroke:#FFFFFF;stroke-width:0.75;stroke-linecap:round;stroke-linejoin:round;stroke-miterlimit:10;}
</style>
<g>
	<g>
		<path class="st0" d="M44.07,57.02c-3.44-1.19-5.1-4.5-5.1-4.5s-1.03-10.76-1.26-14.1c-0.24-3.34,0.79-4.31,0.79-4.31
			c13.67-1.46,18.21-10.46,18.21-10.46"/>
		<path class="st0" d="M37.71,38.41L37.71,38.41c-2.95-2.43-7.1-2.79-10.42-0.9l-6.13,3.49l6.55,4.75c2.53,1.83,5.81,2.26,8.72,1.14
			l1.95-0.75"/>
		<path class="st0" d="M38.51,34.1c0,0-2.65-15.5-10.99-16.19S17.18,30.83,16.49,34.1s-3.42,24.86-3.42,24.86"/>
		<path class="st0" d="M19.01,24.8c0,0,3.88-14.64,17.55-12.75c6,0.83,10.62,3.17,13.92,5.53"/>
		<path class="st0" d="M29.5,46.75l-7.24,19.91C19.98,72.96,11.09,73,8.74,66.73L0.38,44.37l12.24,14.08
			c2.56,2.94,7.01,3.25,9.94,0.69l3.57-3.11"/>
		<path class="st0" d="M48.42,66.75l0.23-0.6c1.43-3.75,4.35-6.74,8.07-8.25l0,0l2.45-10.4"/>
		<path class="st0" d="M59.17,67.32c0-1.99-2.09-1.47-4.04-1.92s-1.33-2.98-1.33-2.98s-1.45,0.55-1.28,4.04s3.01,0,4.74,0.86
			s1.92,2.25,1.92,2.25"/>
		<circle class="st0" cx="45.3" cy="46.67" r="2.07"/>
		<g>
			<line class="st0" x1="13.83" y1="54.61" x2="19.66" y2="60.44"/>
			<line class="st0" x1="14.94" y1="46.35" x2="25.35" y2="56.76"/>
			<line class="st0" x1="15.87" y1="37.91" x2="28.22" y2="50.27"/>
			<line class="st0" x1="17.35" y1="30.02" x2="25.72" y2="38.4"/>
			<line class="st0" x1="19.66" y1="22.96" x2="33" y2="36.3"/>
			<line class="st0" x1="24.45" y1="18.39" x2="38.04" y2="31.98"/>
		</g>
		<polyline class="st0" points="38.99,70.66 29.5,59.06 35.51,47.17 		"/>
		<path class="st0" d="M61.63,23.64c0,0,4.53,9.01,18.21,10.47c0,0,1.02,0.96,0.79,4.3c-0.23,3.34-1.26,14.11-1.26,14.11
			s-1.66,3.31-5.1,4.5"/>
		<path class="st0" d="M80.63,38.41L80.63,38.41c2.95-2.43,7.1-2.79,10.42-0.9l6.13,3.49l-6.55,4.75c-2.53,1.83-5.81,2.26-8.72,1.14
			l-1.95-0.75"/>
		<path class="st0" d="M79.84,34.11c0,0,2.65-15.5,10.99-16.19s10.33,12.91,11.03,16.19c0.7,3.28,3.42,24.86,3.42,24.86"/>
		<path class="st0" d="M67.87,17.59c3.29-2.37,7.91-4.7,13.92-5.53C95.45,10.17,99.33,24.8,99.33,24.8"/>
		<path class="st0" d="M88.84,46.75l7.24,19.91c2.29,6.29,11.17,6.34,13.52,0.06l8.37-22.36l-12.24,14.08
			c-2.56,2.94-7.01,3.25-9.94,0.69l-3.57-3.11"/>
		<path class="st0" d="M69.92,66.75l-0.23-0.6c-1.43-3.75-4.35-6.74-8.07-8.25l0,0l-2.45-10.4"/>
		<path class="st0" d="M59.17,69.57c0,0-1.47,8.31-5.77,8.31"/>
		<path class="st0" d="M59.17,67.32c0-1.99,2.09-1.47,4.04-1.92c1.95-0.45,1.33-2.98,1.33-2.98s1.45,0.55,1.28,4.04
			c-0.17,3.49-3.01,0-4.74,0.86c-1.72,0.86-1.92,2.25-1.92,2.25"/>
		<circle class="st0" cx="73.04" cy="46.68" r="2.07"/>
		<g>
			<line class="st0" x1="104.52" y1="54.61" x2="98.69" y2="60.44"/>
			<line class="st0" x1="103.41" y1="46.35" x2="93" y2="56.76"/>
			<line class="st0" x1="102.47" y1="37.91" x2="90.12" y2="50.27"/>
			<line class="st0" x1="101" y1="30.02" x2="92.62" y2="38.4"/>
			<line class="st0" x1="98.69" y1="22.97" x2="85.35" y2="36.3"/>
			<line class="st0" x1="93.89" y1="18.39" x2="80.3" y2="31.98"/>
		</g>
		<polygon class="st0" points="58.55,33.77 55.42,31.54 57.71,34.63 50.76,35.27 57.72,35.83 55.49,38.97 58.58,36.68 59.22,45.73 
			59.79,36.67 62.92,38.9 60.63,35.81 67.58,35.17 60.62,34.6 62.85,31.46 59.76,33.75 59.12,24.7 		"/>
		<path class="st0" d="M67.87,17.59c-4.2,3.01-6.25,6.05-6.25,6.05h-4.91c0,0-2.04-3.04-6.25-6.06l8.7-17.2L67.87,17.59z"/>
		<polyline class="st0" points="82.83,47.18 88.84,59.06 79.36,70.67 		"/>
		<path class="st0" d="M79.36,70.67L59.18,95.36l-20.19-24.7l5.08-13.64l4.36,9.73l4.98,11.14c0,0,1.75,2.32,5.76,2.32h0.01
			c4,0,5.76-2.32,5.76-2.32l4.98-11.14l4.35-9.73L79.36,70.67z"/>
		<path class="st0" d="M61.99,18.45c0.71,0,1.36-0.23,1.88-0.61c-0.88,1.49-2.49,2.48-4.34,2.48c-2.79,0-5.05-2.26-5.05-5.04
			c0-2.79,2.26-5.05,5.05-5.05c1.84,0,3.46,0.99,4.34,2.48c-0.52-0.39-1.17-0.61-1.88-0.61c-1.76,0-3.18,1.42-3.18,3.18
			C58.81,17.03,60.23,18.45,61.99,18.45z"/>
		<path class="st0" d="M96.63,40.91H80.69h0c-6.22,0-11.93,3.44-14.83,8.95l-4.23,8.03"/>
		<path class="st0" d="M59.17,69.57c0,0,1.47,8.31,5.77,8.31"/>
		<path class="st0" d="M49.92,5.91c-2.75,2.02-2.93,5.54-2.93,5.54s-0.18-3.52-2.93-5.54c2.75-2.02,2.93-5.54,2.93-5.54
			S47.16,3.89,49.92,5.91z"/>
		<path class="st0" d="M30.18,74.82c-2.75,2.02-2.93,5.54-2.93,5.54s-0.18-3.52-2.93-5.54c2.75-2.02,2.93-5.54,2.93-5.54
			S27.43,72.81,30.18,74.82z"/>
		<path class="st0" d="M94.03,74.82c-2.75,2.02-2.93,5.54-2.93,5.54s-0.18-3.52-2.93-5.54c2.75-2.02,2.93-5.54,2.93-5.54
			S91.27,72.81,94.03,74.82z"/>
		<path class="st0" d="M21.48,40.91h15.94h0c6.22,0,11.93,3.44,14.83,8.95l4.23,8.03"/>
	</g>
</g>
</svg>
