<?xml version="1.0" encoding="utf-8"?>
<!-- Generator: Adobe Illustrator 27.9.0, SVG Export Plug-In . SVG Version: 6.00 Build 0)  -->
<svg version="1.1" id="Lager_1" xmlns="http://www.w3.org/2000/svg" xmlns:xlink="http://www.w3.org/1999/xlink" x="0px" y="0px"
	 viewBox="0 0 93.75 101.21" style="enable-background:new 0 0 93.75 101.21;" xml:space="preserve">
<style type="text/css">
	.st0{fill:none;stroke:#FFFFFF;stroke-width:0.75;stroke-linecap:round;stroke-linejoin:round;stroke-miterlimit:10;}
</style>
<g>
	<g>
		<path class="st0" d="M26.99,74.22c-0.4-0.48-0.81-0.97-1.21-1.49"/>
		<path class="st0" d="M22.84,68.44c-0.16-0.28-0.33-0.55-0.49-0.83"/>
		<path class="st0" d="M20.18,62.88c-0.14-0.42-0.27-0.83-0.38-1.24"/>
		<path class="st0" d="M19.66,56.49c0.08-0.26,0.18-0.51,0.3-0.76c0.1-0.21,0.21-0.41,0.32-0.61"/>
		<path class="st0" d="M20.28,55.12c-1.13-1.16-1.82-2.75-1.82-4.5c0-3.59,2.92-6.5,6.51-6.5c1.78,0,3.39,0.71,4.57,1.88
			C26.05,47.81,22.64,50.67,20.28,55.12z"/>
		<path class="st0" d="M22.36,67.61c-0.29,0.08-0.61,0.11-0.94,0.07c-1.46-0.14-2.52-1.44-2.37-2.89c0.08-0.81,0.51-1.49,1.13-1.92
			C20.71,64.43,21.46,66.03,22.36,67.61z"/>
		<path class="st0" d="M30.71,77.95c-0.52,0.41-1.19,0.63-1.91,0.56c-1.46-0.15-2.52-1.44-2.37-2.9c0.05-0.53,0.26-1,0.56-1.39
			C28.29,75.75,29.58,77.05,30.71,77.95z"/>
		<path class="st0" d="M19.8,61.64c-1.3-0.28-2.2-1.5-2.07-2.85c0.11-1.12,0.91-2.01,1.93-2.29C19.2,57.97,19.31,59.74,19.8,61.64z"
			/>
		<path class="st0" d="M22.84,68.44c0.9,1.5,1.91,2.95,2.94,4.29c-0.4,0.17-0.85,0.25-1.32,0.21c-1.46-0.15-2.52-1.45-2.37-2.9
			C22.16,69.41,22.44,68.86,22.84,68.44z"/>
		<path class="st0" d="M18.76,56.95L9.58,54.1c0,0,0,5.73,9.17,7.05"/>
		<polygon class="st0" points="9.58,54.1 12.71,39.59 14.17,55.52 		"/>
		<path class="st0" d="M20.7,67.51l-15.04,1.4c0,0,4.34-5.85,13.59-5.28"/>
		<polygon class="st0" points="5.66,68.91 2.39,81.04 10.44,68.44 		"/>
		<path class="st0" d="M24.56,72.97l-13.82,5.68c0,0,2.43-6.87,11.45-9.03"/>
		<polygon class="st0" points="10.73,78.65 11.16,91.21 15.17,76.8 		"/>
		<path class="st0" d="M26.42,75.6c0,0-13.24,6.46-11.08,12.57l13.45-9.67"/>
		<path class="st0" d="M15.35,88.17l3.11,4.34c0,0,2.81-0.86,1.42-7.6"/>
		<path class="st0" d="M18.46,92.36c-0.04,1.18-0.07,2.37,0.13,3.53c0.2,1.16,0.66,2.31,1.47,3.16c0.76,0.8,1.8,1.3,2.88,1.55
			s2.19,0.27,3.3,0.21c0.52-0.03,1.08-0.09,1.44-0.45c0.28-0.28,0.38-0.69,0.45-1.09c0.36-2.26-0.35-4.68-1.88-6.38
			c-1.53-1.71-3.85-2.68-6.14-2.58"/>
		<path class="st0" d="M18.47,50.62c0,0-6.54-14.81,1.67-17.1l2.96,10.87"/>
		<path class="st0" d="M20.14,33.52c0,0,6.94-20.2,24.69-7.25l-8.03,1.46c0,0-2.44,0.59-3.37,3.18c0,0,0.29,10.71-12.07,7.11"/>
		<path class="st0" d="M21.65,39.06c0,0,4.37,2.94,11.46-0.31s9.93-8.71,9.93-8.71l-9.67,1.91"/>
		<g>
			<circle class="st0" cx="46.88" cy="11.92" r="11.55"/>
			<circle class="st0" cx="50.47" cy="11.77" r="7.96"/>
		</g>
		<path class="st0" d="M63.04,77.95c-1.09,0.87-2.01,1.38-2.62,1.38c-3.47,0-23.62,0-27.09,0c-0.61,0-1.54-0.51-2.62-1.38"/>
		<path class="st0" d="M67.97,72.73c-0.4,0.51-0.81,1.01-1.21,1.49"/>
		<path class="st0" d="M71.39,67.61c-0.16,0.28-0.32,0.55-0.49,0.83"/>
		<path class="st0" d="M73.95,61.64c-0.11,0.41-0.24,0.81-0.38,1.24"/>
		<path class="st0" d="M73.47,55.12c0.11,0.2,0.22,0.41,0.32,0.61c0.12,0.24,0.22,0.5,0.3,0.76"/>
		<path class="st0" d="M64.2,45.99c-7.06-3.68-27.59-3.68-34.66,0"/>
		<path class="st0" d="M73.47,55.12c1.13-1.16,1.82-2.75,1.82-4.5c0-3.59-2.92-6.5-6.51-6.5c-1.78,0-3.39,0.71-4.57,1.88
			C67.7,47.81,71.11,50.67,73.47,55.12z"/>
		<path class="st0" d="M71.39,67.61c0.29,0.08,0.61,0.11,0.94,0.07c1.46-0.14,2.52-1.44,2.37-2.89c-0.08-0.81-0.51-1.49-1.13-1.92
			C73.04,64.43,72.29,66.03,71.39,67.61z"/>
		<path class="st0" d="M63.04,77.95c0.52,0.41,1.19,0.63,1.91,0.56c1.46-0.15,2.52-1.44,2.37-2.9c-0.05-0.53-0.26-1-0.56-1.39
			C65.46,75.75,64.17,77.05,63.04,77.95z"/>
		<path class="st0" d="M73.95,61.64c1.3-0.28,2.2-1.5,2.07-2.85c-0.11-1.12-0.91-2.01-1.93-2.29
			C74.55,57.97,74.44,59.75,73.95,61.64z"/>
		<path class="st0" d="M70.91,68.44c-0.9,1.5-1.91,2.95-2.94,4.29c0.4,0.17,0.85,0.25,1.32,0.21c1.46-0.15,2.52-1.45,2.37-2.9
			C71.59,69.41,71.31,68.86,70.91,68.44z"/>
		<path class="st0" d="M74.99,56.95l9.17-2.85c0,0,0,5.73-9.17,7.05"/>
		<polygon class="st0" points="84.17,54.1 81.04,39.59 79.58,55.52 		"/>
		<path class="st0" d="M73.05,67.51l15.04,1.4c0,0-4.34-5.85-13.59-5.28"/>
		<polygon class="st0" points="88.09,68.91 91.36,81.04 83.31,68.44 		"/>
		<path class="st0" d="M69.15,72.95l13.87,5.7c0,0-2.43-6.87-11.45-9.03"/>
		<polygon class="st0" points="83.02,78.65 82.59,91.21 78.58,76.8 		"/>
		<path class="st0" d="M67.33,75.6c0,0,13.24,6.46,11.08,12.57l-13.45-9.67"/>
		<path class="st0" d="M78.4,88.17l-3.11,4.34c0,0-2.81-0.86-1.42-7.6"/>
		<path class="st0" d="M75.29,92.36c0.04,1.18,0.07,2.37-0.13,3.53s-0.66,2.31-1.47,3.16c-0.76,0.8-1.8,1.3-2.88,1.55
			c-1.08,0.25-2.19,0.27-3.3,0.21c-0.52-0.03-1.08-0.09-1.44-0.45c-0.28-0.28-0.38-0.69-0.45-1.09c-0.36-2.26,0.35-4.68,1.88-6.38
			c1.53-1.71,3.85-2.68,6.14-2.58"/>
		<path class="st0" d="M75.28,50.62c0,0,6.54-14.81-1.67-17.1l-2.96,10.87"/>
		<path class="st0" d="M73.61,33.52c0,0-6.94-20.2-24.69-7.25l8.03,1.46c0,0,2.44,0.59,3.37,3.18c0,0-0.29,10.71,12.07,7.11"/>
		<path class="st0" d="M72.1,39.06c0,0-4.37,2.94-11.46-0.31s-9.93-8.71-9.93-8.71l9.67,1.91"/>
		<polygon class="st0" points="46.27,59.2 42.05,56.2 45.13,60.36 35.78,61.22 45.15,61.98 42.15,66.2 46.31,63.12 47.17,75.3 
			47.93,63.1 52.15,66.1 49.07,61.94 58.42,61.08 49.05,60.32 52.06,56.1 47.89,59.18 47.03,47 		"/>
		<path class="st0" d="M35.88,53.54c-2.98,2.18-3.17,5.99-3.17,5.99s-0.19-3.8-3.17-5.99c2.98-2.18,3.17-5.99,3.17-5.99
			S32.9,51.36,35.88,53.54z"/>
		<path class="st0" d="M62.71,70.7c-2.98,2.18-3.17,5.99-3.17,5.99s-0.19-3.8-3.17-5.99c2.98-2.18,3.17-5.99,3.17-5.99
			S59.74,68.51,62.71,70.7z"/>
		<line class="st0" x1="20.18" y1="62.88" x2="32.04" y2="62.88"/>
		<line class="st0" x1="22.84" y1="68.44" x2="29.06" y2="68.44"/>
		<line class="st0" x1="25.78" y1="72.73" x2="28.07" y2="72.73"/>
		<line class="st0" x1="74.09" y1="56.49" x2="64.2" y2="56.49"/>
		<line class="st0" x1="73.57" y1="62.88" x2="66.76" y2="62.88"/>
		<line class="st0" x1="70.91" y1="68.44" x2="68.27" y2="68.44"/>
		<circle class="st0" cx="40" cy="39.14" r="2.14"/>
		<circle class="st0" cx="53.75" cy="39.14" r="2.14"/>
		<path class="st0" d="M32.86,10.42c-2.97-2.66-7.6-2.47-10.34,0.55l0,0c-2.92,3.22-7.98,3.22-10.9,0l0,0
			c-2.92-3.22-7.98-3.22-10.9,0"/>
		<path class="st0" d="M32.52,14.1c-2.97-2.66-7.6-2.47-10.34,0.55l0,0c-2.92,3.22-7.98,3.22-10.9,0l0,0
			c-2.92-3.22-7.98-3.22-10.9,0"/>
		<path class="st0" d="M32.52,17.96c-2.97-2.66-7.6-2.47-10.34,0.55l0,0c-2.92,3.22-7.98,3.22-10.9,0l0,0
			c-2.92-3.22-7.98-3.22-10.9,0"/>
		<path class="st0" d="M93.38,10.97c-2.97-2.66-7.6-2.47-10.34,0.55l0,0c-2.92,3.22-7.98,3.22-10.9,0l0,0
			c-2.92-3.22-7.98-3.22-10.9,0"/>
		<path class="st0" d="M93.04,14.65c-2.97-2.66-7.6-2.47-10.34,0.55l0,0c-2.92,3.22-7.98,3.22-10.9,0l0,0
			c-2.92-3.22-7.98-3.22-10.9,0"/>
		<path class="st0" d="M93.04,18.5c-2.97-2.66-7.6-2.47-10.34,0.55l0,0c-2.92,3.22-7.98,3.22-10.9,0l0,0
			c-2.92-3.22-7.98-3.22-10.9,0"/>
	</g>
</g>
</svg>
