<?xml version="1.0" encoding="utf-8"?>
<!-- Generator: Adobe Illustrator 27.9.0, SVG Export Plug-In . SVG Version: 6.00 Build 0)  -->
<svg version="1.1" id="Lager_1" xmlns="http://www.w3.org/2000/svg" xmlns:xlink="http://www.w3.org/1999/xlink" x="0px" y="0px"
	 viewBox="0 0 74.88 106.92" style="enable-background:new 0 0 74.88 106.92;" xml:space="preserve">
<style type="text/css">
	.st0{fill:none;stroke:#FFFFFF;stroke-width:0.75;stroke-linecap:round;stroke-linejoin:round;stroke-miterlimit:10;}
</style>
<g>
	<g>
		<polyline class="st0" points="29.62,91.4 33.59,96.8 37.44,96.8 37.44,100.74 		"/>
		<line class="st0" x1="37.43" y1="49.29" x2="35.52" y2="49.29"/>
		<path class="st0" d="M27.23,53.15c0,0-5.34,4.07-6,7.08c-0.04,0.19-0.07,0.4-0.07,0.58c0,3.04,1.54,4.79,1.54,4.79
			s0.87,11.23,1.04,14.83c0.17,3.59,4.1,5.82,4.1,5.82"/>
		<path class="st0" d="M31.86,83.46c0.21,0.77,0.86,1.34,1.52,1.79s1.38,0.84,1.9,1.44c0.69,0.81,0.93,1.98,0.62,3"/>
		<path class="st0" d="M32.14,84.23c-0.39,1.15-0.14,2.49,0.63,3.44c0.77,0.94,2.03,1.45,3.24,1.31"/>
		<path class="st0" d="M33.59,96.8c0,0-0.83,0.85-1,3.29c-0.16,2.44,4.84,6.44,4.84,6.44"/>
		<line class="st0" x1="35.01" y1="99.67" x2="36" y2="96.8"/>
		<path class="st0" d="M21.39,60.26c0,0,16.05-0.95,16.05,14.17l-9.61,11.82c0,0-0.9,4.66,3.68,6.22c4.58,1.55,5.93-1.06,5.93-1.06"
			/>
		<circle class="st0" cx="26.49" cy="64.36" r="1.93"/>
		<path class="st0" d="M35.52,49.29l-8.29,3.87l-7.17-25.7c-0.98-3.51-3.19-6.54-6.23-8.55L0.38,9.99l17.88,6.08
			c4.5,1.53,8.03,5.09,9.51,9.62L35.52,49.29z"/>
		<path class="st0" d="M3.64,50.49l18.9,7.24C6.74,64.41,3.64,50.49,3.64,50.49c16.71-6.91,18.9,7.24,18.9,7.24"/>
		<path class="st0" d="M31.96,103.42C16.39,100.81,4.53,87.27,4.53,70.97c0-4.31,0.83-8.42,2.33-12.19"/>
		<g>
			<line class="st0" x1="9.37" y1="13.05" x2="7.63" y2="14.79"/>
			<line class="st0" x1="19.39" y1="16.5" x2="15.61" y2="20.28"/>
			<line class="st0" x1="26.5" y1="22.86" x2="20.46" y2="28.9"/>
			<line class="st0" x1="30.09" y1="32.74" x2="23.4" y2="39.43"/>
			<line class="st0" x1="33.31" y1="42.99" x2="26.34" y2="49.96"/>
		</g>
		<path class="st0" d="M19.35,74.42c-3.68,2.7-3.91,7.39-3.91,7.39s-0.23-4.7-3.91-7.39c3.68-2.7,3.91-7.39,3.91-7.39
			S15.67,71.72,19.35,74.42z"/>
		<polyline class="st0" points="45.25,91.4 41.28,96.8 37.44,96.8 37.44,100.74 		"/>
		<line class="st0" x1="39.36" y1="49.29" x2="37.44" y2="49.29"/>
		<path class="st0" d="M47.05,86.25c0,0,3.93-2.23,4.1-5.82c0.17-3.59,1.04-14.83,1.04-14.83s1.54-1.75,1.54-4.79
			c0-0.19-0.03-0.39-0.07-0.58c-0.66-3.01-6-7.08-6-7.08"/>
		<path class="st0" d="M43.02,83.46c-0.21,0.77-0.86,1.34-1.52,1.79s-1.38,0.84-1.9,1.44c-0.69,0.81-0.93,1.98-0.62,3"/>
		<path class="st0" d="M42.74,84.23c0.39,1.15,0.14,2.49-0.63,3.44c-0.77,0.94-2.03,1.45-3.24,1.31"/>
		<path class="st0" d="M41.28,96.8c0,0,0.83,0.85,1,3.29s-4.84,6.44-4.84,6.44"/>
		<line class="st0" x1="39.86" y1="99.67" x2="38.88" y2="96.8"/>
		<path class="st0" d="M53.49,60.26c0,0-16.05-0.95-16.05,14.17l9.61,11.82c0,0,0.9,4.66-3.68,6.22c-4.58,1.55-5.93-1.06-5.93-1.06"
			/>
		<circle class="st0" cx="48.39" cy="64.36" r="1.93"/>
		<path class="st0" d="M39.36,49.29l8.29,3.87l7.17-25.7c0.98-3.51,3.19-6.54,6.23-8.55L74.5,9.99l-17.88,6.08
			c-4.5,1.53-8.03,5.09-9.51,9.62L39.36,49.29z"/>
		<path class="st0" d="M71.23,50.49l-18.9,7.24C68.13,64.41,71.23,50.49,71.23,50.49c-16.71-6.91-18.9,7.24-18.9,7.24"/>
		<path class="st0" d="M42.92,103.42c15.56-2.61,27.42-16.15,27.42-32.45c0-4.31-0.83-8.42-2.33-12.19"/>
		<g>
			<line class="st0" x1="65.51" y1="13.05" x2="67.25" y2="14.79"/>
			<line class="st0" x1="55.49" y1="16.5" x2="59.27" y2="20.28"/>
			<line class="st0" x1="48.37" y1="22.86" x2="54.41" y2="28.9"/>
			<line class="st0" x1="44.79" y1="32.74" x2="51.48" y2="39.43"/>
			<line class="st0" x1="41.56" y1="42.99" x2="48.54" y2="49.96"/>
		</g>
		<path class="st0" d="M55.52,74.42c3.68,2.7,3.91,7.39,3.91,7.39s0.23-4.7,3.91-7.39c-3.68-2.7-3.91-7.39-3.91-7.39
			S59.2,71.72,55.52,74.42z"/>
		<circle class="st0" cx="37.74" cy="8.97" r="8.59"/>
		<path class="st0" d="M46.36,4.35c2.88-0.34,4.85-0.08,5.18,0.86c0.63,1.8-5.03,5.43-12.65,8.1s-14.31,3.37-14.94,1.57
			c-0.35-0.99,1.19-2.52,3.9-4.14"/>
		<circle class="st0" cx="37.74" cy="25.3" r="3.76"/>
		<circle class="st0" cx="37.74" cy="34.92" r="1.35"/>
	</g>
</g>
</svg>
