<?xml version="1.0" encoding="utf-8"?>
<!-- Generator: Adobe Illustrator 27.9.0, SVG Export Plug-In . SVG Version: 6.00 Build 0)  -->
<svg version="1.1" id="Lager_1" xmlns="http://www.w3.org/2000/svg" xmlns:xlink="http://www.w3.org/1999/xlink" x="0px" y="0px"
	 viewBox="0 0 80.22 106.88" style="enable-background:new 0 0 80.22 106.88;" xml:space="preserve">
<style type="text/css">
	.st0{fill:none;stroke:#FFFFFF;stroke-width:0.75;stroke-linecap:round;stroke-linejoin:round;stroke-miterlimit:10;}
</style>
<g>
	<g>
		<path class="st0" d="M40.11,68.08c0,0-5.74,0.7-7.95-3.53c0,0-5.46,5.01-5.54,9.01s5.88,7.56,5.88,7.56l7.61-2.85v-3.58
			c0,0-7.89-7.39-7.95-10.13c-0.06-2.74,7.95-11.75,7.95-11.75"/>
		<polyline class="st0" points="40.11,87.9 33.36,85.15 32.5,81.12 		"/>
		<circle class="st0" cx="28.31" cy="52.66" r="1.92"/>
		<path class="st0" d="M40.11,28.21l-2.05-2.67c-1.4-1.83-3.96-2.28-5.9-1.06l0,0"/>
		<path class="st0" d="M37.11,31.31l-4.42-5.77c-1.4-1.83-3.96-2.28-5.9-1.06l-5.11,3.22"/>
		<path class="st0" d="M31.36,37.36c0,0-5.56-12.64-14.83-9.15c0,0-5.21,6.34-2.21,14.11"/>
		<path class="st0" d="M18.88,31.31c0,0,4.37-0.69,7.09,4.14"/>
		<path class="st0" d="M13.8,44.01c0,0,1.01-5.86,7.88-7.93s10.21,1.76,10.21,1.76l-9.43,9.39c12.89,0,11.27,13.77,11.27,13.77"/>
		<path class="st0" d="M23.28,83.89c0,0-2.2,11.12,4.63,15.6c6.83,4.48,12.2,7.02,12.2,7.02"/>
		<path class="st0" d="M18.8,75.08c0,0-8.63,17.1,7.16,22.69"/>
		<path class="st0" d="M15.15,66.57c0,0-11.33,10.45,1.95,22.84"/>
		<path class="st0" d="M14.7,57.61c0,0-11,6.63-4.06,19.85"/>
		<path class="st0" d="M22.46,47.24c0,0-14.93,1.87-13.72,18.63"/>
		<path class="st0" d="M16.9,42.95c0,0-9.17,1.18-7,14.02"/>
		<polyline class="st0" points="9.77,50.74 0.38,67.54 13.8,85.74 		"/>
		<path class="st0" d="M40.11,68.08c0,0,5.74,0.7,7.95-3.53c0,0,5.46,5.01,5.54,9.01c0.08,4-5.88,7.56-5.88,7.56l-7.61-2.85v-3.58
			c0,0,7.89-7.39,7.95-10.13c0.06-2.74-7.95-11.75-7.95-11.75"/>
		<polyline class="st0" points="40.11,87.9 46.86,85.15 47.72,81.12 		"/>
		<circle class="st0" cx="51.91" cy="52.66" r="1.92"/>
		<path class="st0" d="M40.11,28.21l2.05-2.67c1.4-1.83,3.96-2.28,5.9-1.06l0,0"/>
		<path class="st0" d="M43.11,31.31l4.42-5.77c1.4-1.83,3.96-2.28,5.9-1.06l5.11,3.22"/>
		<path class="st0" d="M48.86,37.36c0,0,5.56-12.64,14.83-9.15c0,0,5.21,6.34,2.21,14.11"/>
		<path class="st0" d="M61.34,31.31c0,0-4.37-0.69-7.09,4.14"/>
		<path class="st0" d="M66.42,44.01c0,0-1.01-5.86-7.88-7.93s-10.21,1.76-10.21,1.76l9.43,9.39c-12.89,0-11.27,13.77-11.27,13.77"/>
		<path class="st0" d="M56.94,83.89c0,0,2.2,11.12-4.63,15.6c-6.83,4.48-12.2,7.02-12.2,7.02"/>
		<path class="st0" d="M61.42,75.08c0,0,8.63,17.1-7.16,22.69"/>
		<path class="st0" d="M65.08,66.57c0,0,11.33,10.45-1.95,22.84"/>
		<path class="st0" d="M65.52,57.61c0,0,11,6.63,4.06,19.85"/>
		<path class="st0" d="M57.76,47.24c0,0,14.93,1.87,13.72,18.63"/>
		<path class="st0" d="M63.32,42.95c0,0,9.17,1.18,7,14.02"/>
		<polyline class="st0" points="70.45,50.74 79.85,67.54 66.42,85.74 		"/>
		<circle class="st0" cx="40.06" cy="12.58" r="5.22"/>
		<line class="st0" x1="40.06" y1="0.38" x2="40.06" y2="6.27"/>
		<line class="st0" x1="40.06" y1="18.89" x2="40.06" y2="24.78"/>
		<line class="st0" x1="52.27" y1="12.58" x2="46.38" y2="12.58"/>
		<line class="st0" x1="33.75" y1="12.58" x2="27.86" y2="12.58"/>
		<line class="st0" x1="48.69" y1="3.95" x2="44.53" y2="8.11"/>
		<line class="st0" x1="35.6" y1="17.04" x2="31.43" y2="21.21"/>
		<line class="st0" x1="48.69" y1="21.21" x2="44.53" y2="17.04"/>
		<line class="st0" x1="35.6" y1="8.11" x2="31.43" y2="3.95"/>
		<line class="st0" x1="42.4" y1="6.71" x2="43.76" y2="3.28"/>
		<line class="st0" x1="36.37" y1="21.88" x2="37.73" y2="18.44"/>
		<line class="st0" x1="45.93" y1="14.91" x2="49.36" y2="16.27"/>
		<line class="st0" x1="30.77" y1="8.88" x2="34.2" y2="10.25"/>
		<line class="st0" x1="45.86" y1="10.08" x2="49.25" y2="8.62"/>
		<line class="st0" x1="30.87" y1="16.54" x2="34.27" y2="15.08"/>
		<line class="st0" x1="42.56" y1="18.38" x2="44.02" y2="21.77"/>
		<line class="st0" x1="36.1" y1="3.39" x2="37.56" y2="6.78"/>
		<circle class="st0" cx="40.11" cy="43.92" r="4.57"/>
		<path class="st0" d="M11.12,42.31c-2.75,2.02-2.93,5.54-2.93,5.54s-0.18-3.52-2.93-5.54c2.75-2.02,2.93-5.54,2.93-5.54
			S8.37,40.3,11.12,42.31z"/>
		<path class="st0" d="M74.86,42.31c-2.75,2.02-2.93,5.54-2.93,5.54s-0.18-3.52-2.93-5.54c2.75-2.02,2.93-5.54,2.93-5.54
			S72.11,40.3,74.86,42.31z"/>
	</g>
</g>
</svg>
