<?xml version="1.0" encoding="utf-8"?>
<!-- Generator: Adobe Illustrator 27.9.0, SVG Export Plug-In . SVG Version: 6.00 Build 0)  -->
<svg version="1.1" id="Lager_1" xmlns="http://www.w3.org/2000/svg" xmlns:xlink="http://www.w3.org/1999/xlink" x="0px" y="0px"
	 viewBox="0 0 87 98.33" style="enable-background:new 0 0 87 98.33;" xml:space="preserve">
<style type="text/css">
	.st0{fill:none;stroke:#FFFFFF;stroke-width:0.75;stroke-linecap:round;stroke-linejoin:round;stroke-miterlimit:10;}
</style>
<g>
	<g>
		<polyline class="st0" points="43.65,97.95 29.35,97.95 29.35,96.69 43.65,96.69 		"/>
		<line class="st0" x1="41.34" y1="91.33" x2="30.41" y2="96.69"/>
		<polyline class="st0" points="43.65,91.33 39.68,91.33 39.68,89.28 43.65,89.28 		"/>
		<path class="st0" d="M40.34,89.28l1.99-26.5c0,0,1.76-4.37,0-8.21l-1.99-2.78v-7.22l-1.46-1.92c0,0,0.39-1.59,2.3-2.19v-5.51
			c0,0-2.64-1.2-2.64-2.83c0-1.63,2.76-2.78,2.76-2.78h2.17"/>
		<line class="st0" x1="41.18" y1="40.46" x2="43.48" y2="40.46"/>
		<line class="st0" x1="41.18" y1="34.95" x2="43.48" y2="34.95"/>
		<line class="st0" x1="40.34" y1="51.79" x2="43.48" y2="51.79"/>
		<line class="st0" x1="42.33" y1="62.78" x2="43.65" y2="62.78"/>
		<line class="st0" x1="42.33" y1="54.57" x2="43.48" y2="54.57"/>
		<polyline class="st0" points="41.3,29.33 7.33,29.33 8.87,31.22 39.34,33.68 		"/>
		<path class="st0" d="M12.35,34.68c0,1.9-1.54,3.44-3.44,3.44s-3.44-1.54-3.44-3.44s1.54-3.44,3.44-3.44"/>
		<path class="st0" d="M48.06,18.52c0-1.02-0.33-1.96-0.89-2.71c2.14,1.27,3.57,3.6,3.57,6.25c0,4.02-3.26,7.27-7.26,7.27
			c-4.02,0-7.27-3.26-7.27-7.27c0-2.66,1.43-4.99,3.57-6.25c-0.56,0.75-0.89,1.69-0.89,2.71c0,2.53,2.05,4.58,4.58,4.58
			C46.01,23.1,48.06,21.05,48.06,18.52z"/>
		<polygon class="st0" points="42.87,9.23 39.81,7.05 42.05,10.07 35.26,10.7 42.06,11.25 39.88,14.31 42.9,12.08 43.53,20.92 
			44.08,12.06 47.15,14.24 44.91,11.22 51.7,10.6 44.9,10.04 47.07,6.98 44.05,9.22 43.43,0.38 		"/>
		<line class="st0" x1="0.38" y1="78.41" x2="8.92" y2="38.12"/>
		<path class="st0" d="M9.75,78.41H0.38c0,0-0.56,8.81,9.37,8.81"/>
		<line class="st0" x1="19.12" y1="78.41" x2="10.57" y2="38.12"/>
		<path class="st0" d="M9.75,78.41h9.37c0,0,0.56,8.81-9.37,8.81"/>
		<line class="st0" x1="9.94" y1="53.94" x2="9.94" y2="76.36"/>
		<path class="st0" d="M9.94,74.27c0,0-3.41-1.95-3.97-4.67c-0.56-2.72,3.97-15.66,3.97-15.66"/>
		<line class="st0" x1="6.08" y1="67.44" x2="9.94" y2="71.72"/>
		<line class="st0" x1="6.71" y1="64.44" x2="9.94" y2="68.03"/>
		<line class="st0" x1="7.52" y1="61.81" x2="9.94" y2="64.5"/>
		<line class="st0" x1="8.43" y1="59" x2="9.94" y2="60.68"/>
		<path class="st0" d="M9.94,74.27c0,0,3.41-1.95,3.97-4.67c0.56-2.72-3.97-15.66-3.97-15.66"/>
		<line class="st0" x1="13.81" y1="67.44" x2="9.94" y2="71.72"/>
		<line class="st0" x1="13.18" y1="64.44" x2="9.94" y2="68.03"/>
		<line class="st0" x1="12.37" y1="61.81" x2="9.94" y2="64.5"/>
		<line class="st0" x1="11.46" y1="59" x2="9.94" y2="60.68"/>
		<polyline class="st0" points="43.34,97.95 57.65,97.95 57.65,96.69 43.34,96.69 		"/>
		<line class="st0" x1="45.66" y1="91.33" x2="56.59" y2="96.69"/>
		<polyline class="st0" points="43.34,91.33 47.32,91.33 47.32,89.28 43.34,89.28 		"/>
		<path class="st0" d="M46.66,89.28l-1.99-26.5c0,0-1.76-4.37,0-8.21l1.99-2.78v-7.22l1.46-1.92c0,0-0.39-1.59-2.3-2.19v-5.51
			c0,0,2.64-1.2,2.64-2.83c0-1.63-2.76-2.78-2.76-2.78h-2.17"/>
		<line class="st0" x1="45.82" y1="40.46" x2="43.52" y2="40.46"/>
		<line class="st0" x1="45.82" y1="34.95" x2="43.52" y2="34.95"/>
		<line class="st0" x1="46.66" y1="51.79" x2="43.52" y2="51.79"/>
		<line class="st0" x1="44.67" y1="62.78" x2="43.34" y2="62.78"/>
		<line class="st0" x1="44.67" y1="54.57" x2="43.52" y2="54.57"/>
		<polyline class="st0" points="45.69,29.33 79.67,29.33 78.13,31.22 47.66,33.68 		"/>
		<path class="st0" d="M74.64,34.68c0,1.9,1.54,3.44,3.44,3.44s3.44-1.54,3.44-3.44s-1.54-3.44-3.44-3.44"/>
		<line class="st0" x1="86.62" y1="78.41" x2="78.08" y2="38.12"/>
		<path class="st0" d="M77.25,78.41h9.37c0,0,0.56,8.81-9.37,8.81"/>
		<line class="st0" x1="67.88" y1="78.41" x2="76.42" y2="38.12"/>
		<path class="st0" d="M77.25,78.41h-9.37c0,0-0.56,8.81,9.37,8.81"/>
		<path class="st0" d="M77.25,77.22c-6.39-3.29-5.94-7.81-5.94-7.81c0-1.7,1.38-3.08,3.08-3.08c1.29,0,2.41,0.8,2.86,1.93
			c0.45-1.13,1.56-1.93,2.86-1.93c1.7,0,3.08,1.38,3.08,3.08C83.19,69.4,83.63,73.93,77.25,77.22z"/>
		<path class="st0" d="M38.55,80.62C31.91,78.5,27.1,72.29,27.1,64.95c0-7.34,4.81-13.56,11.45-15.67"/>
		<path class="st0" d="M48.45,49.25c6.68,2.09,11.53,8.33,11.53,15.69c0,7.34-4.81,13.56-11.45,15.67"/>
		<path class="st0" d="M30.25,43.66c-2.75,2.02-2.93,5.54-2.93,5.54s-0.18-3.52-2.93-5.54c2.75-2.02,2.93-5.54,2.93-5.54
			S27.49,41.64,30.25,43.66z"/>
		<path class="st0" d="M62.3,43.66c-2.75,2.02-2.93,5.54-2.93,5.54s-0.18-3.52-2.93-5.54c2.75-2.02,2.93-5.54,2.93-5.54
			S59.55,41.64,62.3,43.66z"/>
	</g>
</g>
</svg>
