<?xml version="1.0" encoding="utf-8"?>
<!-- Generator: Adobe Illustrator 27.9.0, SVG Export Plug-In . SVG Version: 6.00 Build 0)  -->
<svg version="1.1" id="Lager_1" xmlns="http://www.w3.org/2000/svg" xmlns:xlink="http://www.w3.org/1999/xlink" x="0px" y="0px"
	 viewBox="0 0 88.78 73.23" style="enable-background:new 0 0 88.78 73.23;" xml:space="preserve">
<style type="text/css">
	.st0{fill:none;stroke:#FFFFFF;stroke-width:0.75;stroke-linecap:round;stroke-linejoin:round;stroke-miterlimit:10;}
</style>
<g>
	<g>
		<g>
			<path class="st0" d="M71.43,11.36c0,0,12.64,11.89,9.15,30.48c-3.49,18.59-13.68,25.2-13.68,25.2s-2.02,5.31-6.61,3.83
				c0,0-4.25,3.08-8.42-1.37c-3.35-3.57-0.57-6.85-0.57-6.85s-1.72-3.12,4.14-5.63C55.43,57.02,79.93,38.57,71.43,11.36z"/>
			<polyline class="st0" points="88.4,60.41 84.52,49.66 73.96,59.24 			"/>
			<polyline class="st0" points="57,55.55 56.78,36.84 66.96,37.52 60.22,52.6 			"/>
			<path class="st0" d="M81.17,36.26c0,0,2.33-7.2,2.24-8.4c-0.09-1.2-3.91-2.99-3.91-2.99"/>
			<path class="st0" d="M73.01,24.37c0,0-2.83,1.95-3.37,3.42c-0.54,1.47,1.17,7.59,1.17,7.59"/>
			<polyline class="st0" points="86.91,56.26 69.61,64.7 85.54,52.47 			"/>
			<line class="st0" x1="88.4" y1="60.41" x2="69.44" y2="64.94"/>
			<line class="st0" x1="58.46" y1="54.08" x2="63.78" y2="37.31"/>
			<line class="st0" x1="59.19" y1="37" x2="58.05" y2="54.5"/>
			<path class="st0" d="M71.43,11.36c0,0-6.79-8.72-20.38-10.04l12.11,19.92l9.86-1.14"/>
			<path class="st0" d="M72.41,15.25c0,0-5.7-6.81-17.3-7.25"/>
			<path class="st0" d="M72.7,18.13c0,0-6.35-3.87-12.9-2.41"/>
			<circle class="st0" cx="63.4" cy="67.96" r="1.38"/>
			<circle class="st0" cx="54.12" cy="60.97" r="1.38"/>
		</g>
		<g>
			<path class="st0" d="M17.35,61.87c0,0-12.64-11.89-9.15-30.48s13.68-25.2,13.68-25.2s2.02-5.31,6.61-3.83
				c0,0,4.25-3.08,8.42,1.37c3.35,3.57,0.57,6.85,0.57,6.85s1.72,3.12-4.14,5.63C33.35,16.21,8.85,34.66,17.35,61.87z"/>
			<polyline class="st0" points="0.38,12.82 4.26,23.57 14.82,13.99 			"/>
			<polyline class="st0" points="31.78,17.68 31.99,36.39 21.81,35.71 28.56,20.63 			"/>
			<path class="st0" d="M7.61,36.97c0,0-2.33,7.2-2.24,8.4s3.91,2.99,3.91,2.99"/>
			<path class="st0" d="M15.77,48.86c0,0,2.83-1.95,3.37-3.42s-1.17-7.59-1.17-7.59"/>
			<polyline class="st0" points="1.87,16.97 19.17,8.53 3.24,20.76 			"/>
			<line class="st0" x1="0.38" y1="12.82" x2="19.34" y2="8.29"/>
			<line class="st0" x1="30.32" y1="19.15" x2="25" y2="35.92"/>
			<line class="st0" x1="29.59" y1="36.23" x2="30.73" y2="18.73"/>
			<path class="st0" d="M17.35,61.87c0,0,6.79,8.72,20.38,10.04L25.62,51.99l-9.86,1.14"/>
			<path class="st0" d="M16.37,57.98c0,0,5.7,6.81,17.3,7.25"/>
			<path class="st0" d="M16.08,55.1c0,0,6.35,3.87,12.9,2.41"/>
			<circle class="st0" cx="25.38" cy="5.27" r="1.38"/>
			<circle class="st0" cx="34.66" cy="12.26" r="1.38"/>
		</g>
		<g>
			<path class="st0" d="M49.7,41.41c1.13,0,2.17-0.36,3-0.98c-1.4,2.37-3.98,3.96-6.92,3.96c-4.45,0-8.05-3.6-8.05-8.04
				c0-4.45,3.6-8.05,8.05-8.05c2.94,0,5.52,1.58,6.92,3.96c-0.83-0.62-1.87-0.98-3-0.98c-2.8,0-5.07,2.27-5.07,5.07
				C44.63,39.14,46.9,41.41,49.7,41.41z"/>
			<line class="st0" x1="45.21" y1="59.34" x2="45.21" y2="72.86"/>
			<circle class="st0" cx="45.21" cy="55.9" r="1.46"/>
			<circle class="st0" cx="45.21" cy="49.95" r="2.93"/>
			<line class="st0" x1="45.21" y1="13.89" x2="45.21" y2="0.38"/>
			<circle class="st0" cx="45.21" cy="17.33" r="1.46"/>
			<circle class="st0" cx="45.21" cy="23.28" r="2.93"/>
		</g>
		<path class="st0" d="M37.53,50.86c-3.13,2.29-3.33,6.28-3.33,6.28s-0.2-3.99-3.33-6.28c3.13-2.29,3.33-6.28,3.33-6.28
			S34.41,48.57,37.53,50.86z"/>
		<path class="st0" d="M59.54,23.76c-3.13,2.29-3.33,6.28-3.33,6.28s-0.2-3.99-3.33-6.28c3.13-2.29,3.33-6.28,3.33-6.28
			S56.42,21.47,59.54,23.76z"/>
	</g>
</g>
</svg>
