<?xml version="1.0" encoding="utf-8"?>
<!-- Generator: Adobe Illustrator 27.9.0, SVG Export Plug-In . SVG Version: 6.00 Build 0)  -->
<svg version="1.1" id="Lager_1" xmlns="http://www.w3.org/2000/svg" xmlns:xlink="http://www.w3.org/1999/xlink" x="0px" y="0px"
	 viewBox="0 0 99.4 98.51" style="enable-background:new 0 0 99.4 98.51;" xml:space="preserve">
<style type="text/css">
	.st0{fill:none;stroke:#FFFFFF;stroke-width:0.75;stroke-linecap:round;stroke-linejoin:round;stroke-miterlimit:10;}
</style>
<g>
	<g>
		<path class="st0" d="M49.7,22.91c0,0-13.34-0.36-20.27,5.83l1.91,3.92c0,0,3.65-1.47,6.68-2.16c0,0,4.3-7.57,11.67-0.5"/>
		<path class="st0" d="M31.35,32.65L11.6,44.06c-8.2,4.11-11.23-2.15-11.23-2.15c5.28,4.54,12.91-0.01,17.12-6.32l11.94-6.85"/>
		<line class="st0" x1="6.01" y1="45.44" x2="49.7" y2="78.73"/>
		<line class="st0" x1="49.7" y1="19.92" x2="49.7" y2="88"/>
		<polyline class="st0" points="49.7,79.66 44,85.15 44,98.13 49.7,91.64 		"/>
		<line class="st0" x1="49.7" y1="82.74" x2="46.07" y2="86.08"/>
		<line class="st0" x1="49.7" y1="86.64" x2="46.85" y2="89.69"/>
		<polyline class="st0" points="49.7,17.49 43.52,21.46 49.7,3.78 		"/>
		<path class="st0" d="M49.7,22.91c0,0,13.34-0.36,20.27,5.83l-1.91,3.92c0,0-3.65-1.47-6.68-2.16c0,0-4.3-7.57-11.67-0.5"/>
		<path class="st0" d="M68.05,32.65L87.8,44.06c8.2,4.11,11.23-2.15,11.23-2.15c-5.28,4.54-12.91-0.01-17.12-6.32l-11.94-6.85"/>
		<line class="st0" x1="93.39" y1="45.44" x2="49.7" y2="78.73"/>
		<polyline class="st0" points="49.7,79.66 55.4,85.15 55.4,98.13 49.7,91.64 		"/>
		<line class="st0" x1="49.7" y1="82.74" x2="53.33" y2="86.08"/>
		<line class="st0" x1="49.7" y1="86.64" x2="52.55" y2="89.69"/>
		<polyline class="st0" points="49.7,17.49 55.88,21.46 49.7,3.78 		"/>
		<path class="st0" d="M39.32,53.18c1.23,0,2.37-0.4,3.28-1.07c-1.53,2.59-4.35,4.33-7.57,4.33c-4.86,0-8.8-3.94-8.8-8.79
			c0-4.86,3.94-8.8,8.8-8.8c3.22,0,6.03,1.73,7.57,4.33c-0.91-0.67-2.04-1.07-3.28-1.07c-3.07,0-5.55,2.48-5.55,5.55
			C33.77,50.7,36.26,53.18,39.32,53.18z"/>
		<circle class="st0" cx="65.08" cy="48.54" r="5.65"/>
		<line class="st0" x1="65.08" y1="35.35" x2="65.08" y2="41.72"/>
		<line class="st0" x1="65.08" y1="55.37" x2="65.08" y2="61.74"/>
		<line class="st0" x1="78.28" y1="48.54" x2="71.91" y2="48.54"/>
		<line class="st0" x1="58.25" y1="48.54" x2="51.88" y2="48.54"/>
		<line class="st0" x1="74.41" y1="39.21" x2="69.91" y2="43.72"/>
		<line class="st0" x1="60.25" y1="53.37" x2="55.74" y2="57.88"/>
		<line class="st0" x1="74.41" y1="57.88" x2="69.91" y2="53.37"/>
		<line class="st0" x1="60.25" y1="43.72" x2="55.74" y2="39.21"/>
		<line class="st0" x1="67.6" y1="42.2" x2="69.08" y2="38.49"/>
		<line class="st0" x1="61.08" y1="58.6" x2="62.56" y2="54.89"/>
		<line class="st0" x1="71.42" y1="51.07" x2="75.13" y2="52.54"/>
		<line class="st0" x1="55.02" y1="44.55" x2="58.73" y2="46.02"/>
		<line class="st0" x1="71.35" y1="45.84" x2="75.02" y2="44.26"/>
		<line class="st0" x1="55.14" y1="52.83" x2="58.81" y2="51.25"/>
		<line class="st0" x1="67.78" y1="54.81" x2="69.36" y2="58.48"/>
		<line class="st0" x1="60.79" y1="38.61" x2="62.38" y2="42.27"/>
		<polyline class="st0" points="49.7,53.96 31.35,80.22 44,89.69 		"/>
		<polyline class="st0" points="49.7,53.96 68.05,80.22 55.4,89.69 		"/>
		<path class="st0" d="M30.85,72.56c-2.98,2.18-3.17,5.99-3.17,5.99s-0.19-3.8-3.17-5.99c2.98-2.18,3.17-5.99,3.17-5.99
			S27.87,70.38,30.85,72.56z"/>
		<path class="st0" d="M73.13,72.56c-2.98,2.18-3.17,5.99-3.17,5.99s-0.19-3.8-3.17-5.99c2.98-2.18,3.17-5.99,3.17-5.99
			S70.16,70.38,73.13,72.56z"/>
		<path class="st0" d="M42.44,17.9c-1.86-1.86-3.01-4.42-3.01-7.26c0-5.67,4.6-10.27,10.27-10.27s10.27,4.6,10.27,10.27
			c0,2.83-1.15,5.4-3.01,7.26"/>
	</g>
</g>
</svg>
