<?xml version="1.0" encoding="utf-8"?>
<!-- Generator: Adobe Illustrator 27.9.0, SVG Export Plug-In . SVG Version: 6.00 Build 0)  -->
<svg version="1.1" id="Lager_1" xmlns="http://www.w3.org/2000/svg" xmlns:xlink="http://www.w3.org/1999/xlink" x="0px" y="0px"
	 viewBox="0 0 58.31 110.93" style="enable-background:new 0 0 58.31 110.93;" xml:space="preserve">
<style type="text/css">
	.st0{fill:none;stroke:#FFFFFF;stroke-width:0.75;stroke-linecap:round;stroke-linejoin:round;stroke-miterlimit:10;}
</style>
<g>
	<g>
		<g>
			<polyline class="st0" points="29.11,55.13 23.27,55.13 21.96,52.57 			"/>
			<line class="st0" x1="22.21" y1="47.89" x2="21.83" y2="49.05"/>
			<polyline class="st0" points="23.35,44.39 24.26,41.61 29.11,39.82 			"/>
			<path class="st0" d="M23.42,44.16c0,0-4.86-3.92,0-7.87l3.98,4.16"/>
			<path class="st0" d="M23.42,36.29h-8.55c0,0-1.65,5.13,6.62,5.13"/>
			<path class="st0" d="M14.87,36.29l-5.56-7.75c0,0-5.49,1.12-1.84,7.1s8.32,4.17,8.32,4.17"/>
			<path class="st0" d="M6.22,31.55c-2.51-2.36-3.75-6.46-2.87-9.79c0.33-1.25,0.91-2.42,1.48-3.57c0.51-1.02,1.01-2.05,1.52-3.07
				c0.53-1.07,1.06-2.14,1.65-3.17c2.28-3.97,5.54-7.38,9.4-9.85c-3.14,2.85-5.47,6.58-6.67,10.64c-0.28,0.95-0.5,1.97-0.23,2.92
				c0.38,1.36,1.62,2.27,2.44,3.42c1.15,1.62,1.41,3.82,0.68,5.66c-0.73,1.84-2.36,3.41-4.3,3.8"/>
			<path class="st0" d="M20.23,64.65c-0.34,5.65,0.65,12.72,0.65,12.72s2.04,14.77,8.23,14.77"/>
			<path class="st0" d="M21.18,59.19c-0.16,0.54-0.31,1.16-0.46,1.87"/>
			<path class="st0" d="M23.27,55.13c0,0-0.26,0.11-0.66,0.68"/>
			<g>
				<line class="st0" x1="21.27" y1="59.22" x2="29.11" y2="59.22"/>
				<line class="st0" x1="20.16" y1="66.59" x2="29.11" y2="66.59"/>
				<line class="st0" x1="20.5" y1="73.96" x2="29.11" y2="73.96"/>
				<line class="st0" x1="21.67" y1="81.33" x2="29.11" y2="81.33"/>
				<line class="st0" x1="24.48" y1="88.7" x2="29.11" y2="88.7"/>
			</g>
			<path class="st0" d="M20.01,60.92c0.25,0,0.49,0.05,0.71,0.14c-0.04,0.12-0.06,0.24-0.09,0.37c-0.2,0.96-0.33,2.07-0.4,3.22
				c-0.07,0.01-0.15,0.01-0.22,0.01c-1.04,0-1.88-0.84-1.88-1.87C18.13,61.75,18.97,60.92,20.01,60.92z"/>
			<path class="st0" d="M21.55,55.48c0.39,0,0.76,0.12,1.06,0.34c-0.39,0.56-0.91,1.57-1.43,3.37c-0.86-0.17-1.51-0.93-1.51-1.84
				C19.67,56.31,20.52,55.48,21.55,55.48z"/>
			<path class="st0" d="M19.39,50.83c0-1.04,0.84-1.88,1.87-1.88c0.2,0,0.39,0.03,0.56,0.09l-0.65,2l0.78,1.52
				c-0.21,0.09-0.44,0.14-0.69,0.14C20.23,52.7,19.39,51.87,19.39,50.83z"/>
			<path class="st0" d="M20.58,46.04c0-1.04,0.84-1.87,1.88-1.87c0.32,0,0.63,0.08,0.89,0.23l-1.14,3.5
				C21.29,47.77,20.58,46.99,20.58,46.04z"/>
			<path class="st0" d="M21.38,44.51l-6.85,2.79c0,0,1.43,3.04,6.74,0.18"/>
			<path class="st0" d="M14.52,47.3l-2.67-4.44c0,0,1.84-0.8,4.98,3.49"/>
			<path class="st0" d="M11.86,42.87l-5.12,3.16c0,0,0.57,1.39,6.17-1.41"/>
			<path class="st0" d="M19.85,49.61L8.16,54.47c0,0,1.02,2.86,6.74,0.18l5.12-2.43"/>
			<path class="st0" d="M8.16,54.47l-2.67-4.44c0,0,1.84-0.8,4.98,3.49"/>
			<path class="st0" d="M5.49,50.04L0.38,53.2c0,0,0.57,1.39,6.17-1.41"/>
			<path class="st0" d="M20.12,56.13L8.43,60.99c0,0,1.02,2.86,6.74,0.18l5.12-2.43"/>
			<path class="st0" d="M8.43,60.99l-2.67-4.44c0,0,1.84-0.8,4.98,3.49"/>
			<path class="st0" d="M5.77,56.56l-5.12,3.16c0,0,0.57,1.39,6.17-1.41"/>
			<path class="st0" d="M18.18,62.32L10.65,72.5c0,0,2.34,1.93,5.88-3.31l3.03-4.54"/>
			<path class="st0" d="M10.65,72.5l-4.57-2.44c0,0,1.17-1.63,6.07,0.43"/>
			<path class="st0" d="M6.08,70.06l-5.03,9.73c0,0,3.47-3.48,6.84-8.76"/>
			<polyline class="st0" points="36.35,52.57 35.04,55.13 29.2,55.13 			"/>
			<line class="st0" x1="36.48" y1="49.05" x2="36.1" y2="47.89"/>
			<polyline class="st0" points="29.2,39.82 34.05,41.61 34.96,44.39 			"/>
			<path class="st0" d="M34.89,44.16c0,0,4.86-3.92,0-7.87l-3.98,4.16"/>
			<path class="st0" d="M34.89,36.29h8.55c0,0,1.65,5.13-6.62,5.13"/>
			<path class="st0" d="M43.44,36.29L49,28.54c0,0,5.49,1.12,1.84,7.1s-8.32,4.17-8.32,4.17"/>
			<path class="st0" d="M52.09,31.55c2.51-2.36,3.75-6.46,2.87-9.79c-0.33-1.25-0.91-2.42-1.48-3.57c-0.51-1.02-1.01-2.05-1.52-3.07
				c-0.53-1.07-1.06-2.14-1.65-3.17c-2.28-3.97-5.54-7.38-9.4-9.85c3.14,2.85,5.47,6.58,6.67,10.64c0.28,0.95,0.5,1.97,0.23,2.92
				c-0.38,1.36-1.62,2.27-2.44,3.42c-1.15,1.62-1.41,3.82-0.68,5.66s2.36,3.41,4.3,3.8"/>
			<path class="st0" d="M29.2,92.14c6.18,0,8.23-14.77,8.23-14.77s0.99-7.07,0.65-12.72"/>
			<path class="st0" d="M37.59,61.05c-0.15-0.7-0.31-1.32-0.46-1.87"/>
			<path class="st0" d="M35.7,55.81c-0.39-0.57-0.66-0.68-0.66-0.68"/>
			<g>
				<line class="st0" x1="37.04" y1="59.22" x2="29.2" y2="59.22"/>
				<line class="st0" x1="38.15" y1="66.59" x2="29.2" y2="66.59"/>
				<line class="st0" x1="37.81" y1="73.96" x2="29.2" y2="73.96"/>
				<line class="st0" x1="36.64" y1="81.33" x2="29.2" y2="81.33"/>
				<line class="st0" x1="33.83" y1="88.7" x2="29.2" y2="88.7"/>
			</g>
			<path class="st0" d="M38.3,60.92c-0.25,0-0.49,0.05-0.71,0.14c0.04,0.12,0.06,0.24,0.09,0.37c0.2,0.96,0.33,2.07,0.4,3.22
				c0.07,0.01,0.15,0.01,0.22,0.01c1.04,0,1.88-0.84,1.88-1.87C40.18,61.75,39.34,60.92,38.3,60.92z"/>
			<path class="st0" d="M36.76,55.48c-0.39,0-0.76,0.12-1.06,0.34c0.39,0.56,0.91,1.57,1.43,3.37c0.86-0.17,1.51-0.93,1.51-1.84
				C38.64,56.31,37.79,55.48,36.76,55.48z"/>
			<path class="st0" d="M38.92,50.83c0-1.04-0.84-1.88-1.87-1.88c-0.2,0-0.39,0.03-0.56,0.09l0.65,2l-0.78,1.52
				c0.21,0.09,0.44,0.14,0.69,0.14C38.08,52.7,38.92,51.87,38.92,50.83z"/>
			<path class="st0" d="M37.73,46.04c0-1.04-0.84-1.87-1.88-1.87c-0.32,0-0.63,0.08-0.89,0.23l1.14,3.5
				C37.02,47.77,37.73,46.99,37.73,46.04z"/>
			<path class="st0" d="M36.93,44.51l6.85,2.79c0,0-1.43,3.04-6.74,0.18"/>
			<path class="st0" d="M43.79,47.3l2.67-4.44c0,0-1.84-0.8-4.98,3.49"/>
			<path class="st0" d="M46.45,42.87l5.12,3.16c0,0-0.57,1.39-6.17-1.41"/>
			<path class="st0" d="M38.47,49.61l11.69,4.86c0,0-1.02,2.86-6.74,0.18l-5.12-2.43"/>
			<path class="st0" d="M50.15,54.47l2.67-4.44c0,0-1.84-0.8-4.98,3.49"/>
			<path class="st0" d="M52.82,50.04l5.12,3.16c0,0-0.57,1.39-6.17-1.41"/>
			<path class="st0" d="M38.19,56.13l11.69,4.86c0,0-1.02,2.86-6.74,0.18l-5.12-2.43"/>
			<path class="st0" d="M49.88,60.99l2.67-4.44c0,0-1.84-0.8-4.98,3.49"/>
			<path class="st0" d="M52.54,56.56l5.12,3.16c0,0-0.57,1.39-6.17-1.41"/>
			<path class="st0" d="M40.13,62.32l7.53,10.18c0,0-2.34,1.93-5.88-3.31l-3.03-4.54"/>
			<path class="st0" d="M47.66,72.5l4.57-2.44c0,0-1.17-1.63-6.07,0.43"/>
			<path class="st0" d="M52.23,70.06l5.03,9.73c0,0-3.47-3.48-6.84-8.76"/>
			<path class="st0" d="M32.33,90.71c0,0,0.56,5.45-2.52,6.08l-1.44-0.03c-2.95-0.75-2.39-6.05-2.39-6.05"/>
			<polyline class="st0" points="28.63,54.95 24.85,45.81 22.94,51.08 24.09,53.54 25.53,52.23 			"/>
			<circle class="st0" cx="25.95" cy="43.13" r="1.03"/>
			<polyline class="st0" points="29.76,55.13 33.53,45.99 35.45,51.26 34.3,53.72 32.85,52.41 			"/>
			<circle class="st0" cx="32.44" cy="43.32" r="1.03"/>
		</g>
		<circle class="st0" cx="29.16" cy="11.61" r="5.13"/>
		<path class="st0" d="M34.45,21.8c0-1.18-0.38-2.26-1.02-3.13c2.48,1.47,4.14,4.16,4.14,7.23c0,4.65-3.77,8.41-8.4,8.41
			c-4.65,0-8.41-3.77-8.41-8.41c0-3.07,1.66-5.77,4.14-7.23c-0.64,0.87-1.02,1.95-1.02,3.13c0,2.93,2.37,5.3,5.3,5.3
			C32.08,27.1,34.45,24.73,34.45,21.8z"/>
		<circle class="st0" cx="29.16" cy="2.09" r="1.72"/>
		<path class="st0" d="M52.82,93c-1.36,1.4-3.44,1.9-5.4,1.87c-1.51-0.03-3.03-0.33-4.34-1.07c-2.3-1.3-3.75-3.97-3.6-6.6
			c0.15-2.64,1.89-5.12,4.33-6.15c-0.72,0.61-1.19,1.53-1.16,2.48c0.02,0.95,0.55,1.87,1.39,2.31c0.85,0.44,1.88,0.35,2.8,0.1
			c0.92-0.25,1.8-0.71,2.75-0.78c2.72-0.21,4.58,1.01,4.88,3.56C54.66,90.26,54.32,91.7,52.82,93z"/>
		<path class="st0" d="M26.61,95.23c-0.52,3.94,1.27,8.74,4.1,11.53c2.83,2.79,6.98,4.18,10.93,3.7s7.62-2.82,9.77-6.16
			c2.15-3.35,2.75-7.64,1.65-11.46"/>
		<path class="st0" d="M31.92,95.31c0.21,2.01,0.73,4.01,1.71,5.78c0.98,1.77,2.45,3.29,4.26,4.18c2.24,1.09,4.92,1.14,7.25,0.27
			c2.33-0.88,4.28-2.64,5.52-4.8c1.24-2.16,1.77-4.69,1.65-7.17"/>
		<path class="st0" d="M34.38,102.4c-1.36,1.25-2.72,2.5-4.09,3.76"/>
		<path class="st0" d="M40.68,106.13c-0.03,1.37-0.06,2.75-0.09,4.12"/>
		<path class="st0" d="M48.09,104.28c0.33,0.85,0.66,1.69,0.99,2.54"/>
		<polyline class="st0" points="9.14,71.69 5.49,81.04 27.51,101.7 		"/>
		<line class="st0" x1="12.91" y1="62.03" x2="9.91" y2="69.73"/>
		<line class="st0" x1="41.07" y1="92.04" x2="32.97" y2="99.64"/>
		<polyline class="st0" points="49.15,71.69 52.8,81.04 48,85.54 		"/>
		<line class="st0" x1="45.38" y1="62.03" x2="48.38" y2="69.73"/>
		<path class="st0" d="M21.94,12.68c-2.98,2.18-3.17,5.99-3.17,5.99s-0.19-3.8-3.17-5.99c2.98-2.18,3.17-5.99,3.17-5.99
			S18.97,10.5,21.94,12.68z"/>
		<path class="st0" d="M42.7,12.68c-2.98,2.18-3.17,5.99-3.17,5.99s-0.19-3.8-3.17-5.99c2.98-2.18,3.17-5.99,3.17-5.99
			S39.72,10.5,42.7,12.68z"/>
	</g>
</g>
</svg>
