<?xml version="1.0" encoding="utf-8"?>
<!-- Generator: Adobe Illustrator 27.9.0, SVG Export Plug-In . SVG Version: 6.00 Build 0)  -->
<svg version="1.1" id="Lager_1" xmlns="http://www.w3.org/2000/svg" xmlns:xlink="http://www.w3.org/1999/xlink" x="0px" y="0px"
	 viewBox="0 0 75.2 113.27" style="enable-background:new 0 0 75.2 113.27;" xml:space="preserve">
<style type="text/css">
	.st0{fill:none;stroke:#FFFFFF;stroke-width:0.75;stroke-linecap:round;stroke-linejoin:round;stroke-miterlimit:10;}
</style>
<g>
	<g>
		<polyline class="st0" points="38.99,56.89 33.3,56.89 24.07,65.61 21.6,75.6 27.82,102.57 		"/>
		<path class="st0" d="M38.99,103.67h-5.1c0,0-3.01-0.68-3.01-5.37c0,0-1.25,2.99-1.12,6.92c0.07,2.03,1.74,3.65,3.77,3.65h5.46"/>
		<path class="st0" d="M33.88,106.95c0,0-3.93-1.4-2.66-2.66C32.47,103.03,33.88,106.95,33.88,106.95z"/>
		<path class="st0" d="M21.6,75.6l-1.58,2.67c-1.74,2.95-4.95,4.71-8.37,4.61L0.38,82.54"/>
		<path class="st0" d="M22.67,71.24l-3.16-1.13c-3.57-1.27-7.56-0.28-10.11,2.52l-9.03,9.9L22.67,71.24
			c11.24,0,10.48,12.59,10.48,12.59"/>
		<path class="st0" d="M24.07,65.61c0,0-20.68-6.79-20.04-18.87s6.28-17.53,10.13-23.03c6.8-9.73,3.26-23.33,3.26-23.33
			c9.7,13.92,2.68,25.98,0.57,29.49s-5.3,7.77-3.08,15.24S33.3,56.89,33.3,56.89"/>
		<g>
			<line class="st0" x1="20.71" y1="64.31" x2="29.39" y2="55.63"/>
			<line class="st0" x1="13.31" y1="60.39" x2="21.62" y2="52.08"/>
			<line class="st0" x1="7.2" y1="55.17" x2="15.63" y2="46.74"/>
			<line class="st0" x1="4.02" y1="47.04" x2="14.72" y2="36.34"/>
			<line class="st0" x1="9.29" y1="30.44" x2="22.32" y2="17.41"/>
			<line class="st0" x1="18.3" y1="10.1" x2="21.04" y2="7.36"/>
		</g>
		<path class="st0" d="M28.17,82.15c0,0-5.04-1.2-5.15-7.24L25,75.64c1.49,0.56,2.56,1.88,2.77,3.47L28.17,82.15z"/>
		<line class="st0" x1="11.86" y1="59.4" x2="2.36" y2="80.36"/>
		<line class="st0" x1="2.7" y1="82.61" x2="28.43" y2="111.24"/>
		<polyline class="st0" points="36.21,56.89 41.9,56.89 51.14,65.61 53.61,75.6 47.38,102.57 		"/>
		<path class="st0" d="M47.98,104.58l-1.21,6.66c0,0-2.39,2.76-5.72,1.14c-1.51-0.73-2.66-1.11-3.44-1.31
			c-0.79,0.19-1.92,0.57-3.44,1.31c-3.33,1.61-5.73-1.14-5.73-1.14l-1.21-6.66c0,0,4.9-17.46,5.94-20.75
			c0.67-2.13,2.92-2.64,4.42-2.74h0.05c1.5,0.1,3.75,0.61,4.42,2.74C43.09,87.12,47.98,104.58,47.98,104.58z"/>
		<path class="st0" d="M36.21,103.67h5.1c0,0,3.01-0.68,3.01-5.37c0,0,1.25,2.99,1.12,6.92c-0.07,2.03-1.74,3.65-3.77,3.65h-5.46"/>
		<path class="st0" d="M41.33,106.95c0,0,3.93-1.4,2.66-2.66C42.73,103.03,41.33,106.95,41.33,106.95z"/>
		<path class="st0" d="M53.61,75.6l1.58,2.67c1.74,2.95,4.95,4.71,8.37,4.61l11.27-0.34"/>
		<path class="st0" d="M52.53,71.24l3.16-1.13c3.57-1.27,7.56-0.28,10.11,2.52l9.03,9.9L52.53,71.24
			c-11.24,0-10.48,12.59-10.48,12.59"/>
		<path class="st0" d="M51.14,65.61c0,0,20.68-6.79,20.04-18.87S64.9,29.21,61.05,23.71c-6.8-9.73-3.26-23.33-3.26-23.33
			c-9.7,13.92-2.68,25.98-0.57,29.49s5.3,7.77,3.08,15.24C58.08,52.59,41.9,56.89,41.9,56.89"/>
		<g>
			<line class="st0" x1="54.49" y1="64.31" x2="45.81" y2="55.63"/>
			<line class="st0" x1="61.89" y1="60.39" x2="53.58" y2="52.08"/>
			<line class="st0" x1="68" y1="55.17" x2="59.57" y2="46.74"/>
			<line class="st0" x1="71.19" y1="47.04" x2="60.49" y2="36.34"/>
			<line class="st0" x1="65.92" y1="30.44" x2="52.88" y2="17.41"/>
			<line class="st0" x1="56.9" y1="10.1" x2="54.16" y2="7.36"/>
		</g>
		<polygon class="st0" points="43.78,69.9 39.49,72.16 37.6,76.59 35.71,72.16 31.42,69.9 35.71,67.66 37.6,63.22 39.49,67.66 		"/>
		<path class="st0" d="M47.03,82.15c0,0,5.04-1.2,5.15-7.24l-1.98,0.73c-1.49,0.56-2.56,1.88-2.77,3.47L47.03,82.15z"/>
		<line class="st0" x1="63.34" y1="59.4" x2="72.84" y2="80.36"/>
		<line class="st0" x1="72.5" y1="82.61" x2="46.77" y2="111.24"/>
		<circle class="st0" cx="38.46" cy="41.32" r="12.06"/>
		<circle class="st0" cx="38.46" cy="26.51" r="7.99"/>
		<path class="st0" d="M41.92,6.99c0-0.77-0.25-1.48-0.67-2.05c1.62,0.96,2.7,2.72,2.7,4.73c0,3.04-2.46,5.5-5.49,5.5
			c-3.04,0-5.5-2.46-5.5-5.5c0-2.01,1.08-3.77,2.7-4.73c-0.42,0.57-0.67,1.28-0.67,2.05c0,1.92,1.55,3.47,3.47,3.47
			C40.37,10.45,41.92,8.9,41.92,6.99z"/>
		<path class="st0" d="M12.53,17.16c-2.98,2.18-3.17,5.99-3.17,5.99s-0.19-3.8-3.17-5.99c2.98-2.18,3.17-5.99,3.17-5.99
			S9.56,14.98,12.53,17.16z"/>
		<path class="st0" d="M69.09,101.7c-2.98,2.18-3.17,5.99-3.17,5.99s-0.19-3.8-3.17-5.99c2.98-2.18,3.17-5.99,3.17-5.99
			S66.11,99.52,69.09,101.7z"/>
	</g>
</g>
</svg>
