<?xml version="1.0" encoding="utf-8"?>
<!-- Generator: Adobe Illustrator 27.9.0, SVG Export Plug-In . SVG Version: 6.00 Build 0)  -->
<svg version="1.1" id="Lager_1" xmlns="http://www.w3.org/2000/svg" xmlns:xlink="http://www.w3.org/1999/xlink" x="0px" y="0px"
	 viewBox="0 0 65.81 97.25" style="enable-background:new 0 0 65.81 97.25;" xml:space="preserve">
<style type="text/css">
	.st0{fill:none;stroke:#FFFFFF;stroke-width:0.75;stroke-linecap:round;stroke-linejoin:round;stroke-miterlimit:10;}
</style>
<g>
	<g>
		<path class="st0" d="M32.92,32.92c0,0-4.73,16.63-19.61,16.63c0,0-1.85-2.52-3.69-0.99c-1.85,1.53-0.92,14.35,4.97,14.35"/>
		<path class="st0" d="M14.44,53.39c0,0-0.04,7.38,1.42,14.06c1.13,5.18,5.27,10.12,10.86,14.16c1.23,0.88,2.71,1.34,4.22,1.34h1.97
			"/>
		<path class="st0" d="M20.84,76.39c0,0,1.74,9.61-5.19,15.15c-6.93,5.54-15.28,5.33-15.28,5.33L10.7,60.33"/>
		<line class="st0" x1="14.11" y1="62.96" x2="4.94" y2="96.38"/>
		<line class="st0" x1="16.72" y1="70.11" x2="9.92" y2="94.89"/>
		<line class="st0" x1="20.06" y1="75.49" x2="15.65" y2="91.54"/>
		<path class="st0" d="M25.94,73.25c0.62,0.51,1.45,0.69,2.24,0.71c0.8,0.02,1.59-0.12,2.39-0.2c0.8-0.07,1.56-0.07,2.31,0.2"/>
		<path class="st0" d="M26.96,73.78c0,0,0.24-2.29,5.93-2.29"/>
		<path class="st0" d="M29.16,75.59c0,0,1.09,1.6,3.73,1.6"/>
		<path class="st0" d="M18.11,53.11c1.37-1.45,3.3-2.41,5.3-2.45s4.03,0.87,5.19,2.5c1.17,1.64,1.37,3.76,1.34,5.77
			c-0.05,2.82-0.5,5.64-1.34,8.34c0,0,1.15,1.49,4.32,1.49"/>
		<path class="st0" d="M19.04,55.87c0,0,3.44,2.72,8.5,0"/>
		<path class="st0" d="M32.92,26.78c-3.49,19.1-21.96,21.29-21.96,21.29S8.14,33.6,19.81,23.79"/>
		<path class="st0" d="M11.75,32.81c1.87-5.03-2.87-7.55-2.87-7.55S7.02,30.3,11.75,32.81z"/>
		<path class="st0" d="M14.35,27.83c3.53-4.04,0-8.07,0-8.07S10.81,23.79,14.35,27.83z"/>
		<path class="st0" d="M21.79,33.04C17.36,30.01,13.77,34,13.77,34S18.21,37.03,21.79,33.04z"/>
		<path class="st0" d="M24.75,28.72c-4.2-3.34-8.06,0.39-8.06,0.39S20.89,32.45,24.75,28.72z"/>
		<path class="st0" d="M28.38,16.7c1.15,1.37-0.58,3.53-0.58,3.53c1.71,1.2,0.9,2.74,0.9,2.74l-7.71-0.04l1.27-7.61
			c0,0,1.66-0.53,2.54,1.35C24.8,16.67,27.23,15.33,28.38,16.7z"/>
		<path class="st0" d="M32.89,32.93c0,0,4.73,16.63,19.61,16.63c0,0,1.85-2.52,3.69-0.99c1.85,1.53,0.92,14.35-4.97,14.35"/>
		<path class="st0" d="M51.36,53.39c0,0,0.04,7.38-1.42,14.06c-1.13,5.18-5.27,10.12-10.86,14.16c-1.23,0.88-2.71,1.34-4.22,1.34
			h-1.97"/>
		<path class="st0" d="M44.97,76.4c0,0-1.74,9.61,5.19,15.15c6.93,5.54,15.28,5.33,15.28,5.33L55.1,60.34"/>
		<line class="st0" x1="51.69" y1="62.96" x2="60.86" y2="96.39"/>
		<line class="st0" x1="49.09" y1="70.12" x2="55.89" y2="94.9"/>
		<line class="st0" x1="45.75" y1="75.49" x2="50.15" y2="91.55"/>
		<path class="st0" d="M39.86,73.26c-0.62,0.51-1.45,0.69-2.24,0.71c-0.8,0.02-1.59-0.12-2.39-0.2c-0.8-0.07-1.56-0.07-2.31,0.2"/>
		<path class="st0" d="M38.85,73.78c0,0-0.24-2.29-5.93-2.29"/>
		<path class="st0" d="M36.65,75.6c0,0-1.09,1.6-3.73,1.6"/>
		<path class="st0" d="M47.7,53.12c-1.37-1.45-3.3-2.41-5.3-2.45s-4.03,0.87-5.19,2.5c-1.17,1.64-1.37,3.76-1.34,5.77
			c0.05,2.82,0.5,5.64,1.34,8.34c0,0-1.15,1.49-4.32,1.49"/>
		<path class="st0" d="M46.77,55.88c0,0-3.44,2.72-8.5,0"/>
		<path class="st0" d="M32.89,26.78c3.49,19.1,21.96,21.29,21.96,21.29S57.67,33.6,46,23.8"/>
		<path class="st0" d="M54.05,32.82c-1.87-5.03,2.87-7.55,2.87-7.55S58.79,30.3,54.05,32.82z"/>
		<path class="st0" d="M51.46,27.83c-3.53-4.04,0-8.07,0-8.07S54.99,23.8,51.46,27.83z"/>
		<path class="st0" d="M44.02,33.04c4.43-3.03,8.02,0.97,8.02,0.97S47.6,37.03,44.02,33.04z"/>
		<path class="st0" d="M41.05,28.73c4.2-3.34,8.06,0.39,8.06,0.39S44.91,32.45,41.05,28.73z"/>
		<path class="st0" d="M37.43,16.7c-1.15,1.37,0.58,3.53,0.58,3.53c-1.71,1.2-0.9,2.74-0.9,2.74l7.71-0.04l-1.27-7.61
			c0,0-1.66-0.53-2.54,1.35C41,16.68,38.58,15.33,37.43,16.7z"/>
		<path class="st0" d="M8.75,44.99c-2.92-4.52-4.61-9.9-4.61-15.68c0-15.98,12.95-28.93,28.93-28.93s28.93,12.95,28.93,28.93
			c0,5.83-1.73,11.26-4.69,15.81"/>
		<path class="st0" d="M7.29,48.07c-2.96,2.17-3.14,5.94-3.14,5.94S3.95,50.24,1,48.07c2.96-2.17,3.14-5.94,3.14-5.94
			S4.33,45.9,7.29,48.07z"/>
		<path class="st0" d="M65.15,48.07c-2.96,2.17-3.14,5.94-3.14,5.94s-0.19-3.78-3.14-5.94c2.96-2.17,3.14-5.94,3.14-5.94
			S62.2,45.9,65.15,48.07z"/>
	</g>
</g>
</svg>
